<svg width="28" height="29" viewBox="0 0 28 29" fill="none" xmlns="http://www.w3.org/2000/svg">
<g id="SVG">
<g id="Group">
<path id="Vector" fill-rule="evenodd" clip-rule="evenodd" d="M27.6798 0.617423C27.7799 0.699561 27.8606 0.802922 27.916 0.920042C27.9714 1.03716 28.0001 1.16512 28 1.29467V25.7947C27.9999 25.9969 27.9297 26.1928 27.8015 26.3491C27.6732 26.5055 27.4948 26.6126 27.2965 26.6522L18.5465 28.4022C18.4333 28.4247 18.3167 28.4247 18.2035 28.4022L9.625 26.6872L1.0465 28.4022C0.919605 28.4276 0.788664 28.4245 0.663111 28.3931C0.537558 28.3618 0.420518 28.303 0.320424 28.221C0.22033 28.139 0.139673 28.0358 0.0842656 27.9188C0.0288578 27.8019 7.81423e-05 27.6741 0 27.5447V3.04467C0.000122119 2.84246 0.0702732 2.64654 0.198526 2.49021C0.326779 2.33389 0.505216 2.2268 0.7035 2.18717L9.4535 0.437173C9.56671 0.414545 9.68329 0.414545 9.7965 0.437173L18.375 2.15217L26.9535 0.437173C27.0804 0.411651 27.2113 0.41458 27.3369 0.445748C27.4624 0.476917 27.5796 0.53555 27.6798 0.617423ZM17.5 3.76217L10.5 2.36217V25.0772L17.5 26.4772V3.76217ZM19.25 26.4772L26.25 25.0772V2.36217L19.25 3.76217V26.4772ZM8.75 25.0772V2.36217L1.75 3.76217V26.4772L8.75 25.0772Z" fill="#302F5B"/>
</g>
</g>
</svg>
