<svg width="28" height="29" viewBox="0 0 28 29" fill="none" xmlns="http://www.w3.org/2000/svg">
<g id="SVG">
<path id="Vector" d="M7 0.219971C6.07174 0.219971 5.1815 0.58872 4.52513 1.2451C3.86875 1.90147 3.5 2.79171 3.5 3.71997V5.70272L1.85325 6.58122C1.29339 6.87974 0.825208 7.32483 0.498775 7.86889C0.172341 8.41294 -6.34317e-05 9.0355 1.75069e-08 9.66997V24.72C1.75069e-08 25.6483 0.368749 26.5385 1.02513 27.1949C1.6815 27.8513 2.57174 28.22 3.5 28.22H24.5C25.4283 28.22 26.3185 27.8513 26.9749 27.1949C27.6313 26.5385 28 25.6483 28 24.72V9.66997C28.0001 9.0355 27.8277 8.41294 27.5012 7.86889C27.1748 7.32483 26.7066 6.87974 26.1467 6.58122L24.5 5.70272V3.71997C24.5 2.79171 24.1313 1.90147 23.4749 1.2451C22.8185 0.58872 21.9283 0.219971 21 0.219971H7ZM24.5 7.68722L25.3225 8.12472C25.6027 8.27393 25.8371 8.49656 26.0005 8.76877C26.1638 9.04097 26.2501 9.3525 26.25 9.66997V11.0998L24.5 12.1497V7.68722ZM22.75 13.1997L16.1875 17.1372L14 15.8247L11.8125 17.1372L5.25 13.1997V3.71997C5.25 3.25584 5.43437 2.81072 5.76256 2.48253C6.09075 2.15434 6.53587 1.96997 7 1.96997H21C21.4641 1.96997 21.9092 2.15434 22.2374 2.48253C22.5656 2.81072 22.75 3.25584 22.75 3.71997V13.1997ZM3.5 12.1497L1.75 11.0998V9.66997C1.75021 9.35279 1.83662 9.04164 1.99999 8.76977C2.16336 8.4979 2.39754 8.27554 2.6775 8.12647L3.5 7.68722V12.1497ZM26.25 13.1402V23.1748L17.8885 18.1575L26.25 13.1402ZM26.1888 25.1802C26.0878 25.5507 25.8677 25.8777 25.5625 26.1108C25.2574 26.3439 24.884 26.4701 24.5 26.47H3.5C3.11577 26.47 2.74223 26.3435 2.43703 26.1101C2.13182 25.8767 1.91192 25.5493 1.81125 25.1785L14 17.8653L26.1888 25.1802ZM1.75 23.173V13.1402L10.1115 18.1575L1.75 23.173Z" fill="#302F5B"/>
</g>
</svg>
