<svg width="65" height="65" viewBox="0 0 65 65" fill="none" xmlns="http://www.w3.org/2000/svg">
<g id="SVG">
<path id="Vector" d="M59.16 0.47998H5.16C2.39858 0.47998 0.160004 2.71856 0.160004 5.47998V59.48C0.160004 62.2414 2.39858 64.48 5.16 64.48H59.16C61.9214 64.48 64.16 62.2414 64.16 59.48V5.47998C64.16 2.71856 61.9214 0.47998 59.16 0.47998Z" fill="white"/>
<path id="Vector_2" d="M26.535 32.48C26.535 32.9773 26.3375 33.4542 25.9858 33.8058C25.6342 34.1575 25.1573 34.355 24.66 34.355C24.1627 34.355 23.6858 34.1575 23.3342 33.8058C22.9825 33.4542 22.785 32.9773 22.785 32.48C22.785 31.9827 22.9825 31.5058 23.3342 31.1542C23.6858 30.8025 24.1627 30.605 24.66 30.605C25.1573 30.605 25.6342 30.8025 25.9858 31.1542C26.3375 31.5058 26.535 31.9827 26.535 32.48ZM34.035 32.48C34.035 32.9773 33.8375 33.4542 33.4858 33.8058C33.1342 34.1575 32.6573 34.355 32.16 34.355C31.6627 34.355 31.1858 34.1575 30.8342 33.8058C30.4825 33.4542 30.285 32.9773 30.285 32.48C30.285 31.9827 30.4825 31.5058 30.8342 31.1542C31.1858 30.8025 31.6627 30.605 32.16 30.605C32.6573 30.605 33.1342 30.8025 33.4858 31.1542C33.8375 31.5058 34.035 31.9827 34.035 32.48ZM39.66 34.355C40.1573 34.355 40.6342 34.1575 40.9858 33.8058C41.3375 33.4542 41.535 32.9773 41.535 32.48C41.535 31.9827 41.3375 31.5058 40.9858 31.1542C40.6342 30.8025 40.1573 30.605 39.66 30.605C39.1627 30.605 38.6858 30.8025 38.3342 31.1542C37.9825 31.5058 37.785 31.9827 37.785 32.48C37.785 32.9773 37.9825 33.4542 38.3342 33.8058C38.6858 34.1575 39.1627 34.355 39.66 34.355Z" fill="#3639A4"/>
<path id="Vector_3" d="M21.2194 47.1106L21.2569 47.1031C24.6881 46.4225 26.7844 45.5244 27.7594 45.0313C29.1949 45.4141 30.6743 45.607 32.16 45.605C40.4438 45.605 47.16 39.7288 47.16 32.48C47.16 25.2313 40.4438 19.355 32.16 19.355C23.8762 19.355 17.16 25.2313 17.16 32.48C17.16 35.78 18.5531 38.7988 20.8538 41.105C20.6928 42.5864 20.3632 44.0446 19.8713 45.4513L19.8656 45.4719C19.7258 45.8748 19.5733 46.2731 19.4081 46.6663C19.26 47.015 19.5469 47.405 19.92 47.345C20.3544 47.2739 20.7875 47.1958 21.2194 47.1106ZM22.7194 41.2831C22.7456 41.0086 22.711 40.7317 22.618 40.4721C22.525 40.2125 22.3759 39.9766 22.1812 39.7813C20.1938 37.7862 19.035 35.2325 19.035 32.48C19.035 26.495 24.6675 21.23 32.16 21.23C39.6525 21.23 45.285 26.495 45.285 32.48C45.285 38.4669 39.6525 43.73 32.16 43.73C30.8383 43.7319 29.5221 43.5605 28.245 43.22C27.7987 43.1004 27.324 43.1498 26.9119 43.3587C26.1863 43.7263 24.5869 44.4275 21.9731 45.0331C22.3378 43.809 22.5876 42.5536 22.7194 41.2831Z" fill="#3639A4"/>
</g>
</svg>
