<svg width="28" height="29" viewBox="0 0 28 29" fill="none" xmlns="http://www.w3.org/2000/svg">
<g id="SVG">
<g id="Group">
<path id="Vector" d="M19.25 2.32996C19.7141 2.32996 20.1592 2.51433 20.4874 2.84252C20.8156 3.17071 21 3.61583 21 4.07996V25.08C21 25.5441 20.8156 25.9892 20.4874 26.3174C20.1592 26.6456 19.7141 26.83 19.25 26.83H8.75C8.28587 26.83 7.84075 26.6456 7.51256 26.3174C7.18437 25.9892 7 25.5441 7 25.08V4.07996C7 3.61583 7.18437 3.17071 7.51256 2.84252C7.84075 2.51433 8.28587 2.32996 8.75 2.32996H19.25ZM8.75 0.579956C7.82174 0.579956 6.9315 0.948705 6.27513 1.60509C5.61875 2.26146 5.25 3.1517 5.25 4.07996V25.08C5.25 26.0083 5.61875 26.8985 6.27513 27.5549C6.9315 28.2113 7.82174 28.58 8.75 28.58H19.25C20.1783 28.58 21.0685 28.2113 21.7249 27.5549C22.3813 26.8985 22.75 26.0083 22.75 25.08V4.07996C22.75 3.1517 22.3813 2.26146 21.7249 1.60509C21.0685 0.948705 20.1783 0.579956 19.25 0.579956H8.75Z" fill="#302F5B"/>
<path id="Vector_2" d="M14 25.08C14.4641 25.08 14.9092 24.8956 15.2374 24.5674C15.5656 24.2392 15.75 23.7941 15.75 23.33C15.75 22.8659 15.5656 22.4208 15.2374 22.0926C14.9092 21.7644 14.4641 21.58 14 21.58C13.5359 21.58 13.0908 21.7644 12.7626 22.0926C12.4344 22.4208 12.25 22.8659 12.25 23.33C12.25 23.7941 12.4344 24.2392 12.7626 24.5674C13.0908 24.8956 13.5359 25.08 14 25.08Z" fill="#302F5B"/>
</g>
</g>
</svg>
