<svg width="65" height="65" viewBox="0 0 65 65" fill="none" xmlns="http://www.w3.org/2000/svg">
<g id="SVG">
<path id="Vector" d="M59.5 0.47998H5.5C2.73858 0.47998 0.5 2.71856 0.5 5.47998V59.48C0.5 62.2414 2.73858 64.48 5.5 64.48H59.5C62.2614 64.48 64.5 62.2414 64.5 59.48V5.47998C64.5 2.71856 62.2614 0.47998 59.5 0.47998Z" fill="white"/>
<g id="Clip path group">
<mask id="mask0_0_71" style="mask-type:luminance" maskUnits="userSpaceOnUse" x="17" y="17" width="31" height="31">
<g id="clip0_657_2373">
<path id="Vector_2" d="M47.5 17.48H17.5V47.48H47.5V17.48Z" fill="white"/>
</g>
</mask>
<g mask="url(#mask0_0_71)">
<g id="Group">
<path id="Vector_3" d="M32.5939 35.48C33.2239 35.48 33.5389 35.03 33.6327 34.3044C33.7077 33.3031 34.0039 32.7763 35.2208 31.9419C36.4827 31.0513 37.1877 29.8981 37.1877 28.2181C37.1877 25.7338 35.4627 24.0425 32.9464 24.0425C31.0339 24.0425 29.5864 24.965 29.0089 26.4613C28.8339 26.8699 28.7458 27.3105 28.7502 27.755C28.7502 28.4919 29.1308 28.955 29.772 28.955C30.282 28.955 30.6252 28.6794 30.8295 27.9988C31.1258 26.8888 31.8139 26.2831 32.8433 26.2831C33.987 26.2831 34.7745 27.1194 34.7745 28.3156C34.7745 29.3713 34.3845 29.975 33.2333 30.8C32.0727 31.6119 31.497 32.5138 31.497 33.875V34.0831C31.497 34.8856 31.887 35.48 32.5939 35.48Z" fill="#3639A4"/>
<path id="Vector_4" d="M36.7623 22.1918L35.0354 20.4218L36.3761 19.113L37.5423 20.3074L39.2111 20.2868C39.9334 20.2782 40.6502 20.4142 41.3192 20.6867C41.9882 20.9592 42.596 21.3627 43.1068 21.8735C43.6176 22.3843 44.0212 22.9921 44.2937 23.6612C44.5661 24.3302 44.7021 25.0469 44.6936 25.7693L44.6748 27.438L45.8673 28.6043C46.3838 29.109 46.7942 29.7118 47.0744 30.3774C47.3546 31.0429 47.4989 31.7578 47.4989 32.4799C47.4989 33.202 47.3546 33.9169 47.0744 34.5825C46.7942 35.248 46.3838 35.8508 45.8673 36.3555L44.6729 37.5218L44.6936 39.1905C44.7021 39.9129 44.5661 40.6296 44.2937 41.2987C44.0212 41.9677 43.6176 42.5755 43.1068 43.0863C42.596 43.5971 41.9882 44.0006 41.3192 44.2731C40.6502 44.5456 39.9334 44.6816 39.2111 44.673L37.5423 44.6543L36.3761 45.8468C35.8714 46.3633 35.2685 46.7737 34.603 47.0539C33.9374 47.3341 33.2226 47.4784 32.5004 47.4784C31.7783 47.4784 31.0635 47.3341 30.3979 47.0539C29.7324 46.7737 29.1295 46.3633 28.6248 45.8468L27.4586 44.6524L25.7898 44.673C25.0675 44.6816 24.3507 44.5456 23.6817 44.2731C23.0127 44.0006 22.4049 43.5971 21.8941 43.0863C21.3832 42.5755 20.9797 41.9677 20.7072 41.2987C20.4347 40.6296 20.2988 39.9129 20.3073 39.1905L20.3261 37.5218L19.1336 36.3555C18.6171 35.8508 18.2067 35.248 17.9265 34.5825C17.6463 33.9169 17.502 33.202 17.502 32.4799C17.502 31.7578 17.6463 31.0429 17.9265 30.3774C18.2067 29.7118 18.6171 29.109 19.1336 28.6043L20.3279 27.438L20.3073 25.7693C20.2988 25.0469 20.4347 24.3302 20.7072 23.6612C20.9797 22.9921 21.3832 22.3843 21.8941 21.8735C22.4049 21.3627 23.0127 20.9592 23.6817 20.6867C24.3507 20.4142 25.0675 20.2782 25.7898 20.2868L27.4586 20.3055L28.6248 19.113C29.1295 18.5966 29.7324 18.1862 30.3979 17.906C31.0635 17.6258 31.7783 17.4814 32.5004 17.4814C33.2226 17.4814 33.9374 17.6258 34.603 17.906C35.2685 18.1862 35.8714 18.5966 36.3761 19.113L35.0354 20.4218C34.7054 20.0839 34.3111 19.8154 33.8757 19.6321C33.4404 19.4488 32.9728 19.3543 32.5004 19.3543C32.0281 19.3543 31.5605 19.4488 31.1252 19.6321C30.6898 19.8154 30.2955 20.0839 29.9654 20.4218L28.2404 22.1918L25.7654 22.1618C25.2933 22.1565 24.8248 22.2457 24.3876 22.424C23.9504 22.6023 23.5532 22.8662 23.2194 23.2002C22.8856 23.5341 22.6219 23.9315 22.4438 24.3688C22.2657 24.8061 22.1768 25.2746 22.1823 25.7468L22.2123 28.218L20.4423 29.9449C20.1044 30.275 19.8359 30.6693 19.6526 31.1046C19.4693 31.54 19.3748 32.0076 19.3748 32.4799C19.3748 32.9523 19.4693 33.4199 19.6526 33.8552C19.8359 34.2905 20.1044 34.6848 20.4423 35.0149L22.2123 36.7399L22.1823 39.2149C22.177 39.6871 22.2662 40.1555 22.4445 40.5928C22.6228 41.03 22.8867 41.4272 23.2207 41.761C23.5547 42.0948 23.952 42.3585 24.3893 42.5366C24.8266 42.7147 25.2952 42.8036 25.7673 42.798L28.2386 42.768L29.9654 44.538C30.2955 44.8759 30.6898 45.1444 31.1252 45.3278C31.5605 45.5111 32.0281 45.6055 32.5004 45.6055C32.9728 45.6055 33.4404 45.5111 33.8757 45.3278C34.3111 45.1444 34.7054 44.8759 35.0354 44.538L36.7604 42.768L39.2354 42.798C39.7076 42.8033 40.1761 42.7142 40.6133 42.5359C41.0505 42.3575 41.4477 42.0937 41.7815 41.7597C42.1153 41.4257 42.379 41.0284 42.5571 40.591C42.7352 40.1537 42.8241 39.6852 42.8186 39.213L42.7886 36.7418L44.5586 35.0149C44.8965 34.6848 45.165 34.2905 45.3483 33.8552C45.5316 33.4199 45.626 32.9523 45.626 32.4799C45.626 32.0076 45.5316 31.54 45.3483 31.1046C45.165 30.6693 44.8965 30.275 44.5586 29.9449L42.7886 28.2199L42.8186 25.7449C42.8239 25.2728 42.7347 24.8043 42.5564 24.3671C42.3781 23.9298 42.1142 23.5326 41.7802 23.1988C41.4462 22.865 41.0489 22.6013 40.6116 22.4232C40.1742 22.2452 39.7057 22.1563 39.2336 22.1618L36.7623 22.1918Z" fill="#3639A4"/>
<path id="Vector_5" d="M30.627 38.105C30.627 37.6077 30.8245 37.1308 31.1761 36.7792C31.5278 36.4275 32.0047 36.23 32.502 36.23C32.9992 36.23 33.4761 36.4275 33.8278 36.7792C34.1794 37.1308 34.377 37.6077 34.377 38.105C34.377 38.6023 34.1794 39.0792 33.8278 39.4308C33.4761 39.7825 32.9992 39.98 32.502 39.98C32.0047 39.98 31.5278 39.7825 31.1761 39.4308C30.8245 39.0792 30.627 38.6023 30.627 38.105Z" fill="#3639A4"/>
</g>
</g>
</g>
</g>
</svg>
