<svg width="65" height="65" viewBox="0 0 65 65" fill="none" xmlns="http://www.w3.org/2000/svg">
<g id="SVG">
<path id="Vector" d="M59.81 0.47998H5.81C3.04857 0.47998 0.809998 2.71856 0.809998 5.47998V59.48C0.809998 62.2414 3.04857 64.48 5.81 64.48H59.81C62.5714 64.48 64.81 62.2414 64.81 59.48V5.47998C64.81 2.71856 62.5714 0.47998 59.81 0.47998Z" fill="white"/>
<path id="Vector_2" d="M23.435 21.23V29.8288L36.56 42.9538L45.1588 34.355L32.0338 21.23H23.435ZM21.56 21.23C21.56 20.7327 21.7575 20.2558 22.1092 19.9042C22.4608 19.5525 22.9377 19.355 23.435 19.355H32.0338C32.531 19.3551 33.0078 19.5527 33.3594 19.9044L46.4844 33.0294C46.8359 33.381 47.0334 33.8578 47.0334 34.355C47.0334 34.8522 46.8359 35.329 46.4844 35.6806L37.8856 44.2794C37.534 44.6309 37.0572 44.8284 36.56 44.8284C36.0628 44.8284 35.586 44.6309 35.2344 44.2794L22.1094 31.1544C21.7577 30.8028 21.5601 30.326 21.56 29.8288V21.23Z" fill="#3639A4"/>
<path id="Vector_3" d="M28.1225 26.855C27.8739 26.855 27.6354 26.7562 27.4596 26.5804C27.2838 26.4046 27.185 26.1661 27.185 25.9175C27.185 25.6689 27.2838 25.4304 27.4596 25.2546C27.6354 25.0788 27.8739 24.98 28.1225 24.98C28.3711 24.98 28.6096 25.0788 28.7854 25.2546C28.9612 25.4304 29.06 25.6689 29.06 25.9175C29.06 26.1661 28.9612 26.4046 28.7854 26.5804C28.6096 26.7562 28.3711 26.855 28.1225 26.855ZM28.1225 28.73C28.8684 28.73 29.5838 28.4337 30.1112 27.9062C30.6387 27.3788 30.935 26.6634 30.935 25.9175C30.935 25.1716 30.6387 24.4562 30.1112 23.9288C29.5838 23.4013 28.8684 23.105 28.1225 23.105C27.3766 23.105 26.6612 23.4013 26.1338 23.9288C25.6063 24.4562 25.31 25.1716 25.31 25.9175C25.31 26.6634 25.6063 27.3788 26.1338 27.9062C26.6612 28.4337 27.3766 28.73 28.1225 28.73ZM19.685 30.7663C19.6851 31.2635 19.8827 31.7403 20.2344 32.0919L34.2162 46.0738L34.1356 46.1544C33.784 46.5059 33.3072 46.7034 32.81 46.7034C32.3128 46.7034 31.836 46.5059 31.4844 46.1544L18.3594 33.0294C18.0077 32.6778 17.8101 32.201 17.81 31.7038V23.105C17.81 22.6077 18.0075 22.1308 18.3592 21.7792C18.7108 21.4275 19.1877 21.23 19.685 21.23V30.7663Z" fill="#3639A4"/>
</g>
</svg>
