<svg width="25" height="25" viewBox="0 0 25 25" fill="none" xmlns="http://www.w3.org/2000/svg">
<g id="Clip path group">
<mask id="mask0_715_178" style="mask-type:luminance" maskUnits="userSpaceOnUse" x="0" y="0" width="25" height="25">
<g id="clip0_461_995">
<path id="Vector" d="M24.49 0.924805H0.48999V24.9248H24.49V0.924805Z" fill="white"/>
</g>
</mask>
<g mask="url(#mask0_715_178)">
<g id="Group">
<path id="Vector_2" fill-rule="evenodd" clip-rule="evenodd" d="M24.2154 1.09404C24.3014 1.16444 24.3706 1.25304 24.418 1.35343C24.4655 1.45382 24.4901 1.56349 24.49 1.67454V22.6746C24.4899 22.8478 24.4298 23.0158 24.3198 23.1498C24.2099 23.2838 24.0569 23.3756 23.887 23.4096L16.387 24.9096C16.2899 24.9289 16.1901 24.9289 16.093 24.9096L8.73999 23.4396L1.38699 24.9096C1.27822 24.9313 1.16599 24.9286 1.05837 24.9018C0.950754 24.8749 0.850434 24.8245 0.764639 24.7542C0.678844 24.684 0.60971 24.5954 0.562218 24.4952C0.514725 24.395 0.490057 24.2854 0.48999 24.1746V3.17454C0.490095 3.00122 0.550224 2.83328 0.660155 2.69929C0.770086 2.5653 0.923033 2.47351 1.09299 2.43954L8.59299 0.939539C8.69003 0.920143 8.78995 0.920143 8.88699 0.939539L16.24 2.40954L23.593 0.939539C23.7017 0.917663 23.8139 0.920173 23.9216 0.946889C24.0292 0.973605 24.1296 1.02386 24.2154 1.09404ZM15.49 3.78954L9.48999 2.58954V22.0596L15.49 23.2596V3.78954ZM16.99 23.2596L22.99 22.0596V2.58954L16.99 3.78954V23.2596ZM7.98999 22.0596V2.58954L1.98999 3.78954V23.2596L7.98999 22.0596Z" fill="white"/>
</g>
</g>
</g>
</svg>
