<svg width="18" height="19" viewBox="0 0 18 19" fill="none" xmlns="http://www.w3.org/2000/svg">
<g id="Component 1">
<path id="Vector" d="M3.375 17.0427C2.92744 17.0427 2.49822 16.8649 2.18175 16.5485C1.86529 16.232 1.6875 15.8028 1.6875 15.3552V4.10522C1.6875 3.65767 1.86529 3.22844 2.18175 2.91198C2.49822 2.59551 2.92744 2.41772 3.375 2.41772H12.375C12.5242 2.41772 12.6673 2.47698 12.7727 2.58248C12.8782 2.68797 12.9375 2.83104 12.9375 2.98022C12.9375 3.12941 12.8782 3.27248 12.7727 3.37797C12.6673 3.48347 12.5242 3.54272 12.375 3.54272H3.375C3.22582 3.54272 3.08274 3.60198 2.97725 3.70748C2.87176 3.81297 2.8125 3.95604 2.8125 4.10522V15.3552C2.8125 15.5044 2.87176 15.6475 2.97725 15.753C3.08274 15.8585 3.22582 15.9177 3.375 15.9177H14.625C14.7741 15.9177 14.9172 15.8585 15.0228 15.753C15.1282 15.6475 15.1875 15.5044 15.1875 15.3552V9.73022C15.1875 9.58104 15.2468 9.43797 15.3522 9.33248C15.4578 9.22698 15.6009 9.16772 15.75 9.16772C15.8991 9.16772 16.0422 9.22698 16.1478 9.33248C16.2532 9.43797 16.3125 9.58104 16.3125 9.73022V15.3552C16.3125 15.8028 16.1347 16.232 15.8183 16.5485C15.5017 16.8649 15.0726 17.0427 14.625 17.0427H3.375Z" fill="#FF7F72"/>
<path id="Vector_2" d="M9.39832 12.3784L17.2733 4.50345C17.3256 4.45116 17.3672 4.38906 17.3954 4.32074C17.4237 4.2524 17.4383 4.17917 17.4383 4.1052C17.4383 4.03125 17.4237 3.958 17.3954 3.88968C17.3672 3.82134 17.3256 3.75925 17.2733 3.70695C17.221 3.65466 17.1589 3.61317 17.0906 3.58486C17.0223 3.55656 16.949 3.54199 16.8751 3.54199C16.8011 3.54199 16.7279 3.55656 16.6595 3.58486C16.5912 3.61317 16.5291 3.65466 16.4768 3.70695L9.00007 11.1848L6.02332 8.20695C5.97103 8.15465 5.90894 8.11317 5.8406 8.08486C5.77227 8.05656 5.69903 8.04199 5.62507 8.04199C5.55111 8.04199 5.47788 8.05656 5.40954 8.08486C5.34121 8.11317 5.27912 8.15465 5.22682 8.20695C5.17453 8.25925 5.13304 8.32134 5.10474 8.38968C5.07643 8.458 5.06186 8.53124 5.06186 8.6052C5.06186 8.67917 5.07643 8.7524 5.10474 8.82074C5.13304 8.88906 5.17453 8.95115 5.22682 9.00345L8.60182 12.3784C8.65407 12.4308 8.71614 12.4724 8.78449 12.5007C8.85283 12.5291 8.92609 12.5437 9.00007 12.5437C9.07406 12.5437 9.14732 12.5291 9.21565 12.5007C9.284 12.4724 9.34607 12.4308 9.39832 12.3784Z" fill="#FF7F72"/>
</g>
</svg>
