<svg width="18" height="18" viewBox="0 0 18 18" fill="none" xmlns="http://www.w3.org/2000/svg">
<g id="Clip path group">
<mask id="mask0_647_846" style="mask-type:luminance" maskUnits="userSpaceOnUse" x="0" y="0" width="18" height="18">
<g id="clip0_690_5483">
<path id="Vector" d="M8.84527 0.745185L0.359985 9.23047L8.84527 17.7158L17.3306 9.23047L8.84527 0.745185Z" fill="white"/>
</g>
</mask>
<g mask="url(#mask0_647_846)">
<g id="Group">
<path id="Vector_2" fill-rule="evenodd" clip-rule="evenodd" d="M5.19083 12.4329C5.07717 12.3192 5.01331 12.1651 5.01331 12.0043C5.01331 11.8436 5.07717 11.6894 5.19083 11.5757L10.1563 6.61032L6.47655 6.61118C6.3156 6.61118 6.16124 6.54724 6.04743 6.43343C5.93363 6.31962 5.86969 6.16527 5.86969 6.00432C5.86969 5.84337 5.93363 5.68901 6.04743 5.57521C6.16124 5.4614 6.3156 5.39746 6.47655 5.39746H11.6194C11.6992 5.39736 11.7781 5.41299 11.8518 5.44345C11.9255 5.47391 11.9924 5.51861 12.0488 5.57498C12.1051 5.63135 12.1498 5.69829 12.1803 5.77197C12.2108 5.84564 12.2264 5.9246 12.2263 6.00432V11.1472C12.2263 11.3081 12.1624 11.4625 12.0485 11.5763C11.9347 11.6901 11.7804 11.754 11.6194 11.754C11.4585 11.754 11.3041 11.6901 11.1903 11.5763C11.0765 11.4625 11.0126 11.3081 11.0126 11.1472L11.0134 7.46746L6.04798 12.4329C5.93431 12.5466 5.78015 12.6104 5.61941 12.6104C5.45866 12.6104 5.3045 12.5466 5.19083 12.4329Z" fill="#302F5B"/>
</g>
</g>
</g>
</svg>
