<svg width="24" height="25" viewBox="0 0 24 25" fill="none" xmlns="http://www.w3.org/2000/svg">
<g id="Component 5">
<path id="Vector" d="M6.96 7.21076C7.12 7.05076 7.30667 6.97076 7.52 6.97076C7.73333 6.97076 7.89333 7.05076 8 7.21076L12 11.2108L16 7.21076C16.1067 7.05076 16.2667 6.97076 16.48 6.97076C16.6933 6.97076 16.88 7.05076 17.04 7.21076C17.2 7.37076 17.28 7.55743 17.28 7.77076C17.28 7.9841 17.2 8.1441 17.04 8.25076L13.04 12.2508L17.04 16.2508C17.2 16.3574 17.28 16.5174 17.28 16.7308C17.28 16.9441 17.2 17.1308 17.04 17.2908C16.88 17.4508 16.6933 17.5308 16.48 17.5308C16.2667 17.5308 16.1067 17.4508 16 17.2908L12 13.2908L8 17.2908C7.89333 17.4508 7.73333 17.5308 7.52 17.5308C7.30667 17.5308 7.12 17.4508 6.96 17.2908C6.8 17.1308 6.72 16.9441 6.72 16.7308C6.72 16.5174 6.8 16.3574 6.96 16.2508L10.96 12.2508L6.96 8.25076C6.8 8.1441 6.72 7.9841 6.72 7.77076C6.72 7.55743 6.8 7.37076 6.96 7.21076Z" fill="#FF7364"/>
</g>
</svg>
