<svg width="21" height="21" viewBox="0 0 21 21" fill="none" xmlns="http://www.w3.org/2000/svg">
<g id="Clip path group">
<mask id="mask0_486_473" style="mask-type:luminance" maskUnits="userSpaceOnUse" x="0" y="0" width="21" height="21">
<g id="clip0_690_2757">
<path id="Vector" d="M20.77 0.355469H0.77002V20.3555H20.77V0.355469Z" fill="white"/>
</g>
</mask>
<g mask="url(#mask0_486_473)">
<g id="Group">
<path id="Vector_2" d="M10.8926 6.62203C10.9202 6.60988 10.9504 6.60486 10.9805 6.60743C11.0105 6.61001 11.0395 6.6201 11.0646 6.63678C11.0897 6.65346 11.1103 6.67618 11.1243 6.70288C11.1384 6.72957 11.1455 6.75937 11.1451 6.78953V8.23078C11.1451 8.39654 11.2109 8.55551 11.3281 8.67272C11.4453 8.78993 11.6043 8.85578 11.7701 8.85578C12.6038 8.85578 14.2863 8.86203 15.8951 9.88328C17.1251 10.6633 18.3826 12.0833 19.1388 14.7283C17.8638 13.4995 16.4076 12.8333 15.1326 12.4795C14.3489 12.2631 13.5435 12.1348 12.7313 12.097C12.3989 12.0824 12.0659 12.0858 11.7338 12.107H11.7176L11.7113 12.1083H11.7101L11.7701 12.7308L11.7076 12.1083C11.5533 12.1238 11.4103 12.1961 11.3063 12.3111C11.2024 12.4262 11.1449 12.5757 11.1451 12.7308V14.172C11.1451 14.307 11.0076 14.392 10.8926 14.3395L5.91259 10.6733C5.89569 10.6607 5.87817 10.6491 5.86009 10.6383C5.83291 10.6219 5.81042 10.5988 5.79481 10.5713C5.7792 10.5437 5.77099 10.5125 5.77099 10.4808C5.77099 10.4491 5.7792 10.4179 5.79481 10.3903C5.81042 10.3627 5.83291 10.3396 5.86009 10.3233C5.87818 10.3125 5.8957 10.3008 5.91259 10.2883L10.8926 6.62203ZM12.3951 13.3383C12.4801 13.3383 12.5738 13.342 12.6738 13.3458C13.2163 13.3708 13.9663 13.4533 14.7988 13.6845C16.4563 14.1445 18.4188 15.187 19.7238 17.5345C19.7944 17.6612 19.9068 17.7595 20.0419 17.8124C20.1769 17.8653 20.3262 17.8696 20.4641 17.8245C20.6019 17.7794 20.7198 17.6878 20.7975 17.5653C20.8753 17.4429 20.908 17.2972 20.8901 17.1533C20.3101 12.5158 18.5326 10.0758 16.5651 8.82828C15.0088 7.84078 13.4063 7.65078 12.3951 7.61453V6.78953C12.3952 6.53212 12.3258 6.27944 12.1943 6.05817C12.0628 5.8369 11.8739 5.65524 11.6477 5.53235C11.4216 5.40947 11.1664 5.34991 10.9092 5.35998C10.652 5.37004 10.4022 5.44935 10.1863 5.58953L5.19384 9.26453C4.98744 9.39337 4.81723 9.57261 4.69922 9.78539C4.58121 9.99816 4.51929 10.2375 4.51929 10.4808C4.51929 10.7241 4.58121 10.9634 4.69922 11.1762C4.81723 11.3889 4.98744 11.5682 5.19384 11.697L10.1863 15.372C10.4022 15.5122 10.652 15.5915 10.9092 15.6016C11.1664 15.6116 11.4216 15.5521 11.6477 15.4292C11.8739 15.3063 12.0628 15.1247 12.1943 14.9034C12.3258 14.6821 12.3952 14.4294 12.3951 14.172V13.3383Z" fill="#FF7F72"/>
<path id="Vector_3" d="M7.31007 5.72163C7.26138 5.65539 7.2001 5.59941 7.12974 5.55689C7.05939 5.51437 6.98133 5.48615 6.90005 5.47384C6.81878 5.46153 6.73587 5.46538 6.65608 5.48516C6.57629 5.50495 6.50118 5.54028 6.43507 5.58913L1.44506 9.26413C1.23866 9.39296 1.06845 9.57221 0.950438 9.78498C0.832427 9.99776 0.770508 10.2371 0.770508 10.4804C0.770508 10.7237 0.832427 10.963 0.950438 11.1758C1.06845 11.3886 1.23866 11.5678 1.44506 11.6967L6.43757 15.3717C6.50351 15.4221 6.57885 15.4589 6.65917 15.4799C6.7395 15.5009 6.8232 15.5057 6.9054 15.494C6.9876 15.4823 7.06664 15.4543 7.13791 15.4117C7.20917 15.3691 7.27124 15.3128 7.32048 15.2459C7.36973 15.1791 7.40516 15.1031 7.4247 15.0224C7.44425 14.9417 7.44753 14.8579 7.43434 14.7759C7.42115 14.694 7.39176 14.6154 7.34789 14.545C7.30402 14.4745 7.24654 14.4134 7.17882 14.3654L2.16256 10.6729C2.14566 10.6604 2.12814 10.6487 2.11006 10.6379C2.08289 10.6216 2.06039 10.5985 2.04478 10.5709C2.02917 10.5433 2.02096 10.5121 2.02096 10.4804C2.02096 10.4487 2.02917 10.4175 2.04478 10.3899C2.06039 10.3623 2.08289 10.3392 2.11006 10.3229C2.12814 10.3121 2.14567 10.3004 2.16256 10.2879L7.17757 6.59538C7.31098 6.49707 7.39989 6.34979 7.42473 6.18594C7.44958 6.02209 7.40833 5.85507 7.31007 5.72163Z" fill="#FF7F72"/>
</g>
</g>
</g>
</svg>
