<svg width="21" height="21" viewBox="0 0 21 21" fill="none" xmlns="http://www.w3.org/2000/svg">
<g id="Component 1">
<path id="Vector" d="M6.75 10.3555C6.75 10.687 6.6183 11.005 6.38388 11.2394C6.14946 11.4738 5.83152 11.6055 5.5 11.6055C5.16848 11.6055 4.85054 11.4738 4.61612 11.2394C4.3817 11.005 4.25 10.687 4.25 10.3555C4.25 10.0239 4.3817 9.70601 4.61612 9.47159C4.85054 9.23717 5.16848 9.10547 5.5 9.10547C5.83152 9.10547 6.14946 9.23717 6.38388 9.47159C6.6183 9.70601 6.75 10.0239 6.75 10.3555ZM11.75 10.3555C11.75 10.687 11.6183 11.005 11.3839 11.2394C11.1495 11.4738 10.8315 11.6055 10.5 11.6055C10.1685 11.6055 9.85054 11.4738 9.61612 11.2394C9.3817 11.005 9.25 10.687 9.25 10.3555C9.25 10.0239 9.3817 9.70601 9.61612 9.47159C9.85054 9.23717 10.1685 9.10547 10.5 9.10547C10.8315 9.10547 11.1495 9.23717 11.3839 9.47159C11.6183 9.70601 11.75 10.0239 11.75 10.3555ZM15.5 11.6055C15.8315 11.6055 16.1495 11.4738 16.3839 11.2394C16.6183 11.005 16.75 10.687 16.75 10.3555C16.75 10.0239 16.6183 9.70601 16.3839 9.47159C16.1495 9.23717 15.8315 9.10547 15.5 9.10547C15.1685 9.10547 14.8505 9.23717 14.6161 9.47159C14.3817 9.70601 14.25 10.0239 14.25 10.3555C14.25 10.687 14.3817 11.005 14.6161 11.2394C14.8505 11.4738 15.1685 11.6055 15.5 11.6055Z" fill="#FF7F72"/>
<path id="Vector_2" d="M3.20625 20.1092L3.23125 20.1042C5.51875 19.6505 6.91625 19.0517 7.56625 18.723C8.52323 18.9782 9.50956 19.1068 10.5 19.1055C16.0225 19.1055 20.5 15.188 20.5 10.3555C20.5 5.52297 16.0225 1.60547 10.5 1.60547C4.9775 1.60547 0.5 5.52297 0.5 10.3555C0.5 12.5555 1.42875 14.568 2.9625 16.1055C2.8552 17.0931 2.63544 18.0653 2.3075 19.003L2.30375 19.0167C2.21055 19.2853 2.10884 19.5509 1.99875 19.813C1.9 20.0455 2.09125 20.3055 2.34 20.2655C2.62958 20.2181 2.91837 20.166 3.20625 20.1092ZM4.20625 16.2242C4.22376 16.0412 4.20069 15.8566 4.13868 15.6836C4.07667 15.5105 3.97725 15.3532 3.8475 15.223C2.5225 13.893 1.75 12.1905 1.75 10.3555C1.75 6.36547 5.505 2.85547 10.5 2.85547C15.495 2.85547 19.25 6.36547 19.25 10.3555C19.25 14.3467 15.495 17.8555 10.5 17.8555C9.61888 17.8568 8.74139 17.7425 7.89 17.5155C7.59247 17.4358 7.27598 17.4687 7.00125 17.608C6.5175 17.853 5.45125 18.3205 3.70875 18.7242C3.95185 17.9082 4.1184 17.0712 4.20625 16.2242Z" fill="#FF7F72"/>
</g>
</svg>
