<svg width="71" height="71" viewBox="0 0 71 71" fill="none" xmlns="http://www.w3.org/2000/svg">
<g id="Component 1">
<path id="Vector" d="M23.6168 43.6189L24.8517 45.752C25.1083 46.2011 25.4771 46.5539 25.9101 46.8106L30.3202 39.1763H21.5C21.5 39.6734 21.6283 40.1706 21.8849 40.6197L23.6168 43.6189Z" fill="#75E8F0"/>
<path id="Vector_2" d="M35.5 30.1944L31.09 22.5601C30.657 22.8167 30.2881 23.1695 30.0315 23.6186L21.8849 37.7325C21.633 38.1718 21.5003 38.6694 21.5 39.1759H30.3202L35.5 30.1944Z" fill="#75E8F0"/>
<path id="Vector_3" d="M45.0899 46.8106C45.5229 46.5539 45.8918 46.2011 46.1484 45.752L46.6615 44.8699L49.1151 40.6197C49.3717 40.1706 49.5 39.6734 49.5 39.1763H40.6792L42.5561 42.8651L45.0899 46.8106Z" fill="#75E8F0"/>
<path id="Vector_4" d="M35.4999 30.1945L39.91 22.5602C39.477 22.3036 38.9799 22.1753 38.4667 22.1753H32.5331C32.02 22.1753 31.5228 22.3196 31.0898 22.5602L35.4999 30.1945Z" fill="#75E8F0"/>
<path id="Vector_5" d="M40.68 39.1763H30.3203L25.9102 46.8106C26.3431 47.0672 26.8403 47.1955 27.3535 47.1955H43.6468C44.1599 47.1955 44.6571 47.0511 45.0901 46.8106L40.68 39.1763Z" fill="#75E8F0"/>
<path id="Vector_6" d="M45.0418 30.6755L40.9685 23.6186C40.7119 23.1695 40.3431 22.8167 39.9101 22.5601L35.5 30.1944L40.6799 39.1759H49.484C49.484 38.6787 49.3557 38.1815 49.0991 37.7325L45.0418 30.6755Z" fill="#75E8F0"/>
<path id="Vector_7" d="M70 35.1753C70 16.1215 54.5538 0.675293 35.5 0.675293C16.4462 0.675293 1 16.1215 1 35.1753C1 54.2291 16.4462 69.6753 35.5 69.6753C54.5538 69.6753 70 54.2291 70 35.1753Z" stroke="#75E8F0"/>
</g>
</svg>
