<svg width="71" height="71" viewBox="0 0 71 71" fill="none" xmlns="http://www.w3.org/2000/svg">
<g id="Component 1">
<path id="Vector" d="M49.3167 32.7899C49.4876 33.7733 49.5727 34.7696 49.5713 35.7677C49.5713 40.2252 47.978 43.994 45.2054 46.5451H45.2091C42.7844 48.7848 39.4513 50.0814 35.4993 50.0814C31.6137 50.0814 27.8873 48.5379 25.1397 45.7903C22.3922 43.0428 20.8486 39.3163 20.8486 35.4307C20.8486 31.5451 22.3922 27.8187 25.1397 25.0711C27.8873 22.3236 31.6137 20.78 35.4993 20.78C39.1362 20.7374 42.6486 22.1038 45.3006 24.5929L41.1178 28.7757C39.6059 27.3343 37.5879 26.5451 35.4993 26.5781C31.6773 26.5781 28.4304 29.1566 27.273 32.6288C26.6593 34.4482 26.6593 36.4187 27.273 38.2382H27.2784C28.4413 41.7049 31.6828 44.2834 35.5048 44.2834C37.479 44.2834 39.1748 43.7779 40.4897 42.8843H40.4842C41.2477 42.3784 41.9008 41.7232 42.4041 40.958C42.9074 40.1929 43.2504 39.3337 43.4125 38.4323H35.4993V32.7918L49.3167 32.7899Z" fill="#FF7F72"/>
<path id="Vector_2" d="M70 35.4302C70 16.3764 54.5538 0.930176 35.5 0.930176C16.4462 0.930176 1 16.3764 1 35.4302C1 54.484 16.4462 69.9302 35.5 69.9302C54.5538 69.9302 70 54.484 70 35.4302Z" stroke="#FF7F72"/>
</g>
</svg>
