<svg width="21" height="17" viewBox="0 0 21 17" fill="none" xmlns="http://www.w3.org/2000/svg">
<g id="Component 1">
<path id="Vector" d="M19.25 16.165C19.25 16.165 20.5 16.165 20.5 14.915C20.5 13.665 19.25 9.91504 14.25 9.91504C9.25 9.91504 8 13.665 8 14.915C8 16.165 9.25 16.165 9.25 16.165H19.25ZM9.2775 14.915C9.26827 14.9137 9.25909 14.9121 9.25 14.91C9.25125 14.58 9.45875 13.6225 10.2 12.76C10.89 11.9513 12.1025 11.165 14.25 11.165C16.3962 11.165 17.6087 11.9525 18.3 12.76C19.0413 13.6225 19.2475 14.5813 19.25 14.91L19.24 14.9125C19.2342 14.9135 19.2284 14.9143 19.2225 14.915H9.2775ZM14.25 7.41504C14.913 7.41504 15.5489 7.15165 16.0178 6.68281C16.4866 6.21397 16.75 5.57808 16.75 4.91504C16.75 4.252 16.4866 3.61611 16.0178 3.14727C15.5489 2.67843 14.913 2.41504 14.25 2.41504C13.587 2.41504 12.9511 2.67843 12.4822 3.14727C12.0134 3.61611 11.75 4.252 11.75 4.91504C11.75 5.57808 12.0134 6.21397 12.4822 6.68281C12.9511 7.15165 13.587 7.41504 14.25 7.41504ZM18 4.91504C18 5.4075 17.903 5.89513 17.7145 6.3501C17.5261 6.80507 17.2499 7.21847 16.9017 7.56669C16.5534 7.91491 16.14 8.19113 15.6851 8.37959C15.2301 8.56804 14.7425 8.66504 14.25 8.66504C13.7575 8.66504 13.2699 8.56804 12.8149 8.37959C12.36 8.19113 11.9466 7.91491 11.5983 7.56669C11.2501 7.21847 10.9739 6.80507 10.7855 6.3501C10.597 5.89513 10.5 5.4075 10.5 4.91504C10.5 3.92048 10.8951 2.96665 11.5983 2.26339C12.3016 1.56013 13.2554 1.16504 14.25 1.16504C15.2446 1.16504 16.1984 1.56013 16.9017 2.26339C17.6049 2.96665 18 3.92048 18 4.91504ZM9.17 10.265C8.66998 10.1076 8.15454 10.0041 7.6325 9.95629C7.33916 9.9284 7.04466 9.91463 6.75 9.91504C1.75 9.91504 0.5 13.665 0.5 14.915C0.5 15.7487 0.91625 16.165 1.75 16.165H7.02C6.83469 15.7748 6.74228 15.3469 6.75 14.915C6.75 13.6525 7.22125 12.3625 8.1125 11.285C8.41625 10.9175 8.77 10.5738 9.17 10.265ZM6.65 11.165C5.91019 12.2766 5.51055 13.5798 5.5 14.915H1.75C1.75 14.59 1.955 13.6275 2.7 12.76C3.38125 11.965 4.565 11.19 6.65 11.1663V11.165ZM2.375 5.54004C2.375 4.54548 2.77009 3.59165 3.47335 2.88839C4.17661 2.18513 5.13044 1.79004 6.125 1.79004C7.11956 1.79004 8.07339 2.18513 8.77665 2.88839C9.47991 3.59165 9.875 4.54548 9.875 5.54004C9.875 6.5346 9.47991 7.48843 8.77665 8.19169C8.07339 8.89495 7.11956 9.29004 6.125 9.29004C5.13044 9.29004 4.17661 8.89495 3.47335 8.19169C2.77009 7.48843 2.375 6.5346 2.375 5.54004ZM6.125 3.04004C5.46196 3.04004 4.82607 3.30343 4.35723 3.77227C3.88839 4.24111 3.625 4.877 3.625 5.54004C3.625 6.20308 3.88839 6.83897 4.35723 7.30781C4.82607 7.77665 5.46196 8.04004 6.125 8.04004C6.78804 8.04004 7.42393 7.77665 7.89277 7.30781C8.36161 6.83897 8.625 6.20308 8.625 5.54004C8.625 4.877 8.36161 4.24111 7.89277 3.77227C7.42393 3.30343 6.78804 3.04004 6.125 3.04004Z" fill="#FF7F72"/>
</g>
</svg>
