<svg width="21" height="21" viewBox="0 0 21 21" fill="none" xmlns="http://www.w3.org/2000/svg">
<g id="Clip path group">
<mask id="mask0_486_226" style="mask-type:luminance" maskUnits="userSpaceOnUse" x="0" y="0" width="21" height="21">
<g id="clip0_661_2595">
<path id="Vector" d="M20.77 0.609863H0.77002V20.6099H20.77V0.609863Z" fill="white"/>
</g>
</mask>
<g mask="url(#mask0_486_226)">
<g id="Group">
<path id="Vector_2" fill-rule="evenodd" clip-rule="evenodd" d="M0.77002 0.609863H2.02002V19.3599H20.77V20.6099H0.77002V0.609863ZM13.27 4.98486C13.27 4.8191 13.3358 4.66013 13.4531 4.54292C13.5703 4.42571 13.7292 4.35986 13.895 4.35986H18.895C19.0608 4.35986 19.2197 4.42571 19.3369 4.54292C19.4542 4.66013 19.52 4.8191 19.52 4.98486V9.98486C19.52 10.1506 19.4542 10.3096 19.3369 10.4268C19.2197 10.544 19.0608 10.6099 18.895 10.6099C18.7292 10.6099 18.5703 10.544 18.4531 10.4268C18.3358 10.3096 18.27 10.1506 18.27 9.98486V6.73486L13.7538 12.2562C13.6985 12.3236 13.6297 12.3788 13.5518 12.4181C13.4739 12.4574 13.3886 12.4799 13.3015 12.4843C13.2144 12.4886 13.1273 12.4747 13.0459 12.4434C12.9645 12.4121 12.8905 12.364 12.8288 12.3024L9.59502 9.06861L5.02502 15.3524C4.92505 15.4795 4.77969 15.5629 4.6195 15.5851C4.45931 15.6073 4.29675 15.5666 4.16598 15.4714C4.03522 15.3762 3.94643 15.2341 3.91828 15.0748C3.89013 14.9156 3.92481 14.7516 4.01502 14.6174L9.01502 7.74236C9.06809 7.66925 9.13638 7.60852 9.21518 7.56434C9.29398 7.52017 9.38143 7.4936 9.47148 7.48647C9.56154 7.47934 9.65207 7.49182 9.73684 7.52305C9.82161 7.55428 9.89861 7.60351 9.96252 7.66736L13.2238 10.9299L17.5762 5.60986H13.895C13.7292 5.60986 13.5703 5.54401 13.4531 5.4268C13.3358 5.30959 13.27 5.15062 13.27 4.98486Z" fill="#FF7F72"/>
</g>
</g>
</g>
</svg>
