<svg width="25" height="25" viewBox="0 0 25 25" fill="none" xmlns="http://www.w3.org/2000/svg">
<g id="Clip path group">
<mask id="mask0_715_983" style="mask-type:luminance" maskUnits="userSpaceOnUse" x="0" y="0" width="25" height="25">
<g id="clip0_461_993">
<path id="Vector" d="M24.49 0.924805H0.48999V24.9248H24.49V0.924805Z" fill="white"/>
</g>
</mask>
<g mask="url(#mask0_715_983)">
<g id="Group">
<path id="Vector_2" d="M6.48999 0.924805C5.69434 0.924805 4.93127 1.24088 4.36867 1.80348C3.80606 2.36609 3.48999 3.12916 3.48999 3.9248V5.6243L2.07849 6.3773C1.59861 6.63318 1.19731 7.01469 0.917512 7.48102C0.637711 7.94735 0.489936 8.48098 0.48999 9.02481V21.9248C0.48999 22.7204 0.806061 23.4835 1.36867 24.0462C1.93127 24.6087 2.69434 24.9248 3.48999 24.9248H21.49C22.2856 24.9248 23.0487 24.6087 23.6114 24.0462C24.1739 23.4835 24.49 22.7204 24.49 21.9248V9.02481C24.49 8.48098 24.3423 7.94735 24.0624 7.48102C23.7827 7.01469 23.3813 6.63318 22.9016 6.3773L21.49 5.6243V3.9248C21.49 3.12916 21.1739 2.36609 20.6114 1.80348C20.0487 1.24088 19.2856 0.924805 18.49 0.924805H6.48999ZM21.49 7.3253L22.195 7.7003C22.4352 7.8282 22.6361 8.01902 22.7762 8.25235C22.9162 8.48567 22.9901 8.75268 22.99 9.02481V10.2503L21.49 11.1503V7.3253ZM19.99 12.0503L14.365 15.4252L12.49 14.3002L10.615 15.4252L4.98999 12.0503V3.9248C4.98999 3.52698 5.14803 3.14545 5.42933 2.86415C5.71064 2.58284 6.09217 2.4248 6.48999 2.4248H18.49C18.8878 2.4248 19.2694 2.58284 19.5507 2.86415C19.832 3.14545 19.99 3.52698 19.99 3.9248V12.0503ZM3.48999 11.1503L1.98999 10.2503V9.02481C1.99017 8.75294 2.06423 8.48623 2.20426 8.2532C2.34429 8.02018 2.54503 7.82958 2.78499 7.70181L3.48999 7.3253V11.1503ZM22.99 11.9993V20.6002L15.823 16.2998L22.99 11.9993ZM22.9374 22.3192C22.8509 22.6369 22.6623 22.9171 22.4008 23.1169C22.1392 23.3167 21.8192 23.4249 21.49 23.4248H3.48999C3.16065 23.4248 2.84048 23.3163 2.57887 23.1163C2.31727 22.9162 2.12878 22.6357 2.04249 22.3178L12.49 16.0494L22.9374 22.3192ZM1.98999 20.5988V11.9993L9.15699 16.2998L1.98999 20.5988Z" fill="white"/>
</g>
</g>
</g>
</svg>
