<svg width="25" height="25" viewBox="0 0 25 25" fill="none" xmlns="http://www.w3.org/2000/svg">
<g id="Component 5">
<path id="Vector" d="M12.7 15.0391C12.6062 15.0391 12.5125 15.0195 12.4187 14.9805C12.325 14.9414 12.239 14.8906 12.1609 14.8281L8.69214 11.3359C8.55151 11.1953 8.4812 11.0195 8.4812 10.8086C8.4812 10.5977 8.55151 10.4219 8.69214 10.2812C8.84839 10.125 9.02808 10.0469 9.2312 10.0469C9.43433 10.0469 9.61401 10.125 9.77026 10.2812L12.7 13.2344L15.6296 10.2812C15.7859 10.125 15.9656 10.0469 16.1687 10.0469C16.3718 10.0469 16.5515 10.125 16.7078 10.2812C16.8484 10.4219 16.9187 10.5977 16.9187 10.8086C16.9187 11.0195 16.8484 11.1953 16.7078 11.3359L13.239 14.8281C13.1609 14.8906 13.075 14.9414 12.9812 14.9805C12.8875 15.0195 12.7937 15.0391 12.7 15.0391Z" fill="#5F6168"/>
</g>
</svg>
