<svg width="25" height="25" viewBox="0 0 25 25" fill="none" xmlns="http://www.w3.org/2000/svg">
<g id="Clip path group">
<mask id="mask0_715_907" style="mask-type:luminance" maskUnits="userSpaceOnUse" x="0" y="0" width="25" height="25">
<g id="clip0_459_1265">
<path id="Vector" d="M24.49 0.925293H0.48999V24.9253H24.49V0.925293Z" fill="white"/>
</g>
</mask>
<g mask="url(#mask0_715_907)">
<g id="Group">
<path id="Vector_2" d="M16.99 2.42529C17.3878 2.42529 17.7694 2.58333 18.0507 2.86464C18.332 3.14594 18.49 3.52747 18.49 3.92529V21.9253C18.49 22.3231 18.332 22.7047 18.0507 22.986C17.7694 23.2673 17.3878 23.4253 16.99 23.4253H7.98999C7.59217 23.4253 7.21064 23.2673 6.92933 22.986C6.64803 22.7047 6.48999 22.3231 6.48999 21.9253V3.92529C6.48999 3.52747 6.64803 3.14594 6.92933 2.86464C7.21064 2.58333 7.59217 2.42529 7.98999 2.42529H16.99ZM7.98999 0.925293C7.19434 0.925293 6.43127 1.24136 5.86867 1.80397C5.30606 2.36658 4.98999 3.12965 4.98999 3.92529V21.9253C4.98999 22.7209 5.30606 23.484 5.86867 24.0467C6.43127 24.6092 7.19434 24.9253 7.98999 24.9253H16.99C17.7856 24.9253 18.5487 24.6092 19.1114 24.0467C19.6739 23.484 19.99 22.7209 19.99 21.9253V3.92529C19.99 3.12965 19.6739 2.36658 19.1114 1.80397C18.5487 1.24136 17.7856 0.925293 16.99 0.925293H7.98999Z" fill="white"/>
<path id="Vector_3" d="M12.49 21.9258C12.8878 21.9258 13.2694 21.7677 13.5507 21.4865C13.8319 21.2052 13.99 20.8236 13.99 20.4258C13.99 20.028 13.8319 19.6464 13.5507 19.3651C13.2694 19.0838 12.8878 18.9258 12.49 18.9258C12.0922 18.9258 11.7106 19.0838 11.4293 19.3651C11.148 19.6464 10.99 20.028 10.99 20.4258C10.99 20.8236 11.148 21.2052 11.4293 21.4865C11.7106 21.7677 12.0922 21.9258 12.49 21.9258Z" fill="white"/>
</g>
</g>
</g>
</svg>
