<svg width="71" height="73" viewBox="0 0 71 73" fill="none" xmlns="http://www.w3.org/2000/svg">
<g id="Clip path group">
<mask id="mask0_428_202" style="mask-type:luminance" maskUnits="userSpaceOnUse" x="0" y="0" width="71" height="73">
<g id="clip0_741_5916">
<path id="Vector" d="M70.8923 0.800049H0V72.8H70.8923V0.800049Z" fill="white"/>
</g>
</mask>
<g mask="url(#mask0_428_202)">
<g id="Group">
<path id="Vector_2" d="M70.8923 57.9292C70.8925 58.3524 70.8092 58.7715 70.6473 59.1625C70.4854 59.5535 70.2481 59.9088 69.9489 60.208C69.6496 60.5073 69.2943 60.7446 68.9033 60.9065C68.5123 61.0684 68.0932 61.1516 67.67 61.1515H3.22228C2.79908 61.1516 2.38 61.0684 1.98899 60.9065C1.59798 60.7446 1.2427 60.5073 0.94346 60.208C0.644215 59.9088 0.406868 59.5535 0.244985 59.1625C0.0831017 58.7715 -0.000145363 58.3524 1.9054e-07 57.9292V12.8162C-0.000145363 12.393 0.0831017 11.974 0.244985 11.5829C0.406868 11.1919 0.644215 10.8366 0.94346 10.5374C1.2427 10.2382 1.59798 10.0009 1.98899 9.83897C2.38 9.67709 2.79908 9.59384 3.22228 9.59399H67.67C68.0932 9.59384 68.5123 9.67709 68.9033 9.83897C69.2943 10.0009 69.6496 10.2382 69.9489 10.5374C70.2481 10.8366 70.4854 11.1919 70.6473 11.5829C70.8092 11.974 70.8925 12.393 70.8923 12.8162V57.9292Z" fill="white"/>
<path id="Vector_3" d="M25.7793 61.1526H45.1141V69.4105H25.7793V61.1526Z" fill="#302F5B"/>
<path id="Vector_4" d="M51.5574 71.0209C51.5574 71.9104 50.8363 72.6326 49.9457 72.6326H20.9452C20.5177 72.6326 20.1078 72.4628 19.8056 72.1606C19.5033 71.8583 19.3335 71.4484 19.3335 71.0209C19.3335 70.5935 19.5033 70.1835 19.8056 69.8813C20.1078 69.579 20.5177 69.4092 20.9452 69.4092H49.9468C50.8363 69.4092 51.5574 70.1303 51.5574 71.0209Z" fill="#302F5B"/>
<path id="Vector_5" d="M70.8923 57.9293V48.2625H0V57.9293C0.000293596 58.7838 0.339878 59.6033 0.944108 60.2075C1.54834 60.8117 2.36777 61.1513 3.22228 61.1516H67.67C68.0932 61.1518 68.5123 61.0685 68.9033 60.9066C69.2943 60.7447 69.6496 60.5074 69.9489 60.2081C70.2481 59.9089 70.4854 59.5536 70.6473 59.1626C70.8092 58.7716 70.8925 58.3525 70.8923 57.9293Z" fill="#302F5B"/>
<path id="Vector_6" d="M35.4462 59.2385C34.2982 59.2373 33.1975 58.7808 32.3857 57.969C31.574 57.1572 31.1174 56.0565 31.1162 54.9085C31.1162 52.5203 33.0591 50.5786 35.4462 50.5786C37.8333 50.5786 39.7762 52.5203 39.7762 54.9085C39.775 56.0565 39.3184 57.1572 38.5066 57.969C37.6949 58.7808 36.5942 59.2373 35.4462 59.2385ZM35.4462 52.7939C34.8854 52.7942 34.3478 53.0171 33.9513 53.4136C33.5548 53.8101 33.3319 54.3478 33.3316 54.9085C33.3316 56.0738 34.2798 57.0231 35.4462 57.0231C36.6126 57.0231 37.5608 56.0749 37.5608 54.9085C37.5602 54.3479 37.3372 53.8104 36.9408 53.4139C36.5443 53.0175 36.0068 52.7945 35.4462 52.7939Z" fill="#CECECE"/>
<path id="Vector_7" d="M0 12.8162V48.2624H21.8481L60.5166 9.59399H3.22228C2.36777 9.59428 1.54834 9.93386 0.944108 10.5381C0.339878 11.1423 0.000293596 11.9617 0 12.8162Z" fill="white"/>
<path id="Vector_8" d="M35.7231 37.1463C45.5113 37.1463 53.4462 29.2114 53.4462 19.4232C53.4462 9.63509 45.5113 1.7002 35.7231 1.7002C25.9349 1.7002 18 9.63509 18 19.4232C18 29.2114 25.9349 37.1463 35.7231 37.1463Z" fill="#F2F2F2"/>
<path id="Vector_9" d="M44.75 20.4463C44.6563 20.2207 44.4979 20.0278 44.2948 19.892C44.0916 19.7563 43.8528 19.6837 43.6085 19.6835H40.4137V11.0352C40.4137 10.353 39.8607 9.80005 39.1785 9.80005H31.7663C31.0841 9.80005 30.5311 10.353 30.5311 11.0352V19.6835H27.3363C27.0918 19.6833 26.8527 19.7556 26.6494 19.8914C26.4461 20.0272 26.2876 20.2202 26.1941 20.4461C26.1005 20.6721 26.0761 20.9206 26.124 21.1604C26.1718 21.4002 26.2898 21.6204 26.4629 21.7931L34.5751 29.2202C34.6898 29.3349 34.8259 29.4259 34.9758 29.488C35.1257 29.55 35.2863 29.582 35.4485 29.582C35.6107 29.582 35.7714 29.55 35.9212 29.488C36.0711 29.4259 36.2073 29.3349 36.322 29.2202L44.4829 21.7931C44.6554 21.62 44.7729 21.3998 44.8204 21.1601C44.868 20.9205 44.8435 20.6721 44.75 20.4463Z" fill="#FF7F72"/>
</g>
</g>
</g>
</svg>
