<svg width="69" height="69" viewBox="0 0 69 69" fill="none" xmlns="http://www.w3.org/2000/svg">
<g id="Clip path group">
<mask id="mask0_431_802" style="mask-type:luminance" maskUnits="userSpaceOnUse" x="0" y="0" width="69" height="69">
<g id="clip0_741_5938">
<path id="Vector" d="M68.5 0.800049H0.5V68.8H68.5V0.800049Z" fill="white"/>
</g>
</mask>
<g mask="url(#mask0_431_802)">
<g id="Group">
<path id="Vector_2" d="M68.5 0.800049H0.5V68.8H68.5V0.800049Z" fill="white"/>
<path id="Vector_3" fill-rule="evenodd" clip-rule="evenodd" d="M7.48084 2.37669C4.72111 2.37669 2.47608 4.6218 2.47608 7.38148L2.47612 62.2147C2.47612 64.9743 4.72105 67.2196 7.48079 67.2196H61.5171C64.2756 67.2196 66.5205 64.9745 66.5205 62.2148L66.5206 7.38142C66.5206 4.62182 64.2755 2.37679 61.5171 2.37679L7.48084 2.37669ZM61.5172 68.7756H7.48084C3.86344 68.7756 0.919922 65.8323 0.919922 62.2148L0.920009 7.38143C0.920009 3.76404 3.86331 0.820644 7.48079 0.820644L61.5171 0.820557C65.1346 0.820557 68.0766 3.76408 68.0766 7.38152L68.0767 62.2147C68.0767 65.8324 65.1347 68.7757 61.5172 68.7756Z" fill="#302F5B"/>
<path id="Vector_4" fill-rule="evenodd" clip-rule="evenodd" d="M67.2982 14.8189H1.69758C1.26796 14.8189 0.919434 14.4704 0.919434 14.0409C0.919521 13.6113 1.26796 13.2628 1.69749 13.2628H67.2982C67.7291 13.2628 68.0762 13.6113 68.0762 14.0409C68.0763 14.4703 67.729 14.8189 67.2982 14.8189ZM10.1578 8.89701H15.1193V6.74244H10.1578V8.89701ZM15.8973 10.4531H9.37966C8.95009 10.4531 8.60156 10.1047 8.60156 9.67515L8.60161 5.96438C8.60161 5.53477 8.95009 5.18637 9.37962 5.18637L15.8974 5.18628C16.327 5.18628 16.6753 5.5349 16.6753 5.96442L16.6754 9.67506C16.6754 10.1047 16.3268 10.4532 15.8973 10.4531ZM21.0075 8.89701H25.9676V6.74244H21.0075V8.89701ZM26.7457 10.4531H20.2294C19.7984 10.4531 19.4512 10.1047 19.4512 9.67515L19.4513 5.96438C19.4513 5.53477 19.7984 5.18637 20.2293 5.18637L26.7457 5.18628C27.1751 5.18628 27.5236 5.5349 27.5236 5.96442L27.5238 9.67506C27.5238 10.1047 27.1751 10.4532 26.7457 10.4531ZM31.8557 8.89701H36.8159V6.74244H31.8557V8.89701ZM37.594 10.4531H31.0777C30.6482 10.4531 30.2996 10.1047 30.2996 9.67515V5.96438C30.2996 5.53477 30.6481 5.18637 31.0776 5.18637L37.594 5.18628C38.0236 5.18628 38.372 5.5349 38.372 5.96442V9.67506C38.372 10.1047 38.0235 10.4532 37.594 10.4531ZM17.121 58.396H40.02V35.4986H17.121V58.396ZM40.7981 59.952H16.343C15.9135 59.952 15.5649 59.6036 15.5649 59.1741V34.7204C15.5649 34.2908 15.9134 33.9423 16.343 33.9423H40.7981C41.2275 33.9423 41.5761 34.2908 41.5761 34.7204L41.5762 59.174C41.5762 59.6036 41.2275 59.9521 40.7981 59.952Z" fill="#302F5B"/>
<path id="Vector_5" fill-rule="evenodd" clip-rule="evenodd" d="M46.7255 54.025H40.7982C40.3672 54.025 40.02 53.6765 40.02 53.2469C40.0201 52.8159 40.3672 52.4689 40.7981 52.4689L45.9474 52.4688V29.5699H23.0499V34.7206C23.0499 35.1501 22.7012 35.4987 22.2717 35.4987C21.8409 35.4987 21.4937 35.1502 21.4937 34.7206L21.4938 28.7918C21.4938 28.3623 21.8408 28.0139 22.2717 28.0139L46.7254 28.0137C47.155 28.0137 47.5034 28.3624 47.5034 28.7919V53.2469C47.5034 53.6765 47.155 54.025 46.7255 54.025Z" fill="#FF7F72"/>
<path id="Vector_6" fill-rule="evenodd" clip-rule="evenodd" d="M52.6542 48.0962H46.7255C46.2958 48.0962 45.9473 47.7477 45.9473 47.3182C45.9474 46.8886 46.2958 46.5401 46.7254 46.5401L51.8761 46.54V23.6412H28.9772V28.7918C28.9772 29.2214 28.6286 29.5699 28.1991 29.5699C27.7695 29.5699 27.421 29.2215 27.421 28.7919L27.4211 22.8631C27.4211 22.4335 27.7695 22.0851 28.1991 22.0851L52.6542 22.085C53.0836 22.085 53.4321 22.4337 53.4321 22.8632L53.4322 47.3181C53.4322 47.7477 53.0836 48.0962 52.6542 48.0962ZM9.9051 31.8852C9.47552 31.8852 9.12695 31.5367 9.12695 31.1071L9.12704 22.8631C9.12704 22.4335 9.47548 22.0851 9.90501 22.0851L18.1491 22.085C18.5786 22.085 18.9271 22.4336 18.9271 22.8632C18.9271 23.2927 18.5786 23.6412 18.149 23.6412H10.6832V31.1071C10.6832 31.5367 10.3346 31.8852 9.9051 31.8852ZM59.0921 59.9523H50.8481C50.4185 59.9523 50.07 59.6039 50.07 59.1743C50.07 58.7448 50.4185 58.3963 50.848 58.3963L58.314 58.3961V50.9302C58.314 50.5007 58.6625 50.1523 59.092 50.1523C59.5217 50.1522 59.8701 50.5008 59.8701 50.9304L59.8702 59.1742C59.8702 59.6038 59.5216 59.9524 59.0921 59.9523Z" fill="#302F5B"/>
</g>
</g>
</g>
</svg>
