<svg width="24" height="25" viewBox="0 0 24 25" fill="none" xmlns="http://www.w3.org/2000/svg">
<g id="Component 5">
<path id="Vector" d="M16.48 7.69086C16.6933 7.47753 16.9467 7.37086 17.24 7.37086C17.5333 7.37086 17.7867 7.47753 18 7.69086C18.2133 7.90419 18.3333 8.17086 18.36 8.49086C18.3867 8.81086 18.2933 9.07753 18.08 9.29086L12.08 16.7309C11.8667 16.9975 11.6 17.1309 11.28 17.1309C10.96 17.1309 10.6933 17.0242 10.48 16.8109L6.48 12.8109C6.16 12.5442 6.05333 12.1842 6.16 11.7309C6.26666 11.2775 6.53333 10.9975 6.96 10.8909C7.38666 10.7842 7.76 10.8909 8.08 11.2109L11.2 14.4109L16.48 7.69086Z" fill="#FF7364"/>
</g>
</svg>
